<svg width="481" height="481" viewBox="0 0 481 481" fill="none" xmlns="http://www.w3.org/2000/svg">
<path fill-rule="evenodd" clip-rule="evenodd" d="M135.253 155.361V310.722L161.501 312.699C206.554 316.091 242.256 337.199 261.241 371.665L270.524 388.513L269.387 238.756L268.251 89.0001L256.575 68.4086C250.15 57.0833 239.668 42.6843 233.28 36.4132C217.789 21.213 181.644 5.28265 156.019 2.36615L135.253 0V155.361ZM67.6264 227.278V397.378L143.143 398.853C184.679 399.666 223.456 401.71 229.317 403.395C239.019 406.184 239.681 405.652 236.706 397.483C228.519 375.02 218.009 362.481 198.939 352.44C180.734 342.852 174.593 341.714 141.132 341.714H103.694V199.445V57.1769H85.6601H67.6264V227.278ZM0 283.683V454.031H99.3657C188.578 454.031 200.472 454.769 215.76 461.245C225.124 465.214 235.435 471.111 238.672 474.349C247.22 482.9 270.524 480.762 270.524 480.762V450.715C270.524 450.715 272.498 457.711 248.306 444.413C217.581 427.532 194.444 424.08 111.994 424.08H36.0674V268.708V113.336H18.0337H0V283.683Z" fill="#3B5998"/>
<path fill-rule="evenodd" clip-rule="evenodd" d="M301.32 90.3756C301.32 90.3756 301.301 125.879 301.314 125.879C301.327 125.879 300.629 481 300.629 481C300.609 481 300.672 481 300.653 481H358.493H459.187L463.889 478.951C472.326 475.275 478.364 467.964 480.136 459.281C481.288 453.633 481.288 117.867 480.136 112.219C478.364 103.536 472.326 96.2255 463.889 92.549L459.187 90.5002L360.137 90.3787C304.01 90.3091 303.074 89.9874 301.32 90.3756ZM391.373 110.751C391.997 111.837 391.997 112.722 391.373 113.808C390.516 115.296 389.651 115.336 358.493 115.336C327.334 115.336 326.47 115.296 325.613 113.808C324.988 112.722 324.988 111.837 325.613 110.751C326.47 109.263 327.334 109.223 358.493 109.223C389.651 109.223 390.516 109.263 391.373 110.751ZM461.242 282.311V432.474H358.493L300.724 432.553L301.297 132.148H358.493H461.242V282.311ZM363.166 442.457C366.001 443.453 369.75 446.669 371.307 449.439C373.91 454.072 372.194 461.19 367.61 464.776C358.242 472.104 344.519 466.069 344.519 454.622C344.519 445.934 354.51 439.417 363.166 442.457Z" fill="#FF0303"/>
</svg>
