<svg width="481" height="481" viewBox="0 0 481 481" fill="none" xmlns="http://www.w3.org/2000/svg">
<path fill-rule="evenodd" clip-rule="evenodd" d="M135.253 155.361V310.722L161.501 312.699C206.554 316.091 242.256 337.199 261.241 371.665L270.524 388.513L269.387 238.756L268.251 89.0001L256.575 68.4086C250.15 57.0833 239.668 42.6843 233.28 36.4132C217.789 21.213 181.644 5.28265 156.019 2.36615L135.253 0V155.361ZM67.6264 227.278V397.378L143.143 398.853C184.679 399.666 223.456 401.71 229.317 403.395C239.019 406.184 239.681 405.652 236.706 397.483C228.519 375.02 218.009 362.481 198.939 352.44C180.734 342.852 174.593 341.714 141.132 341.714H103.694V199.445V57.1769H85.6601H67.6264V227.278ZM0 283.683V454.031H99.3657C188.578 454.031 200.472 454.769 215.76 461.245C225.124 465.214 235.435 471.111 238.672 474.349C247.22 482.9 270.524 480.762 270.524 480.762V450.715C270.524 450.715 272.498 457.711 248.306 444.413C217.581 427.532 194.444 424.08 111.994 424.08H36.0674V268.708V113.336H18.0337H0V283.683Z" fill="white"/>
<path d="M155.962 2.86293L156.012 2.42059L155.962 2.86294C168.71 4.31384 184.103 9.00707 198.248 15.2408C212.398 21.4769 225.245 29.2303 232.929 36.7701C239.273 42.9974 249.729 57.3538 256.14 68.6553L267.752 89.1338L268.887 238.76L270.009 386.542L261.679 371.424C242.599 336.786 206.73 315.602 161.538 312.2L135.753 310.258V155.361V0.560208L155.962 2.86293ZM103.194 341.714V342.214H103.694H141.132C157.87 342.214 167.725 342.5 175.665 343.973C183.584 345.442 189.617 348.096 198.706 352.882C208.196 357.879 215.536 363.486 221.52 370.624C227.507 377.765 232.156 386.459 236.236 397.654C236.982 399.701 237.483 401.227 237.679 402.333C237.882 403.478 237.716 403.947 237.453 404.158C237.307 404.275 237.066 404.372 236.661 404.406C236.257 404.439 235.731 404.407 235.06 404.302C233.715 404.093 231.883 403.612 229.455 402.914C227.933 402.477 224.357 402.03 219.263 401.59C214.147 401.148 207.446 400.709 199.634 400.298C184.009 399.474 163.925 398.76 143.152 398.353L68.1264 396.888V227.278V57.6769H85.6601H103.194V199.445V341.714ZM268.504 453.05C269.144 453.028 269.643 452.906 270.024 452.713V480.301C269.874 480.312 269.69 480.325 269.474 480.339C268.825 480.38 267.887 480.43 266.734 480.463C264.428 480.53 261.267 480.529 257.842 480.264C254.415 479.998 250.738 479.468 247.396 478.479C244.049 477.489 241.079 476.05 239.025 473.996C237.355 472.325 233.915 470.013 229.761 467.637C225.592 465.253 220.656 462.777 215.955 460.785C208.245 457.519 201.39 455.707 185.315 454.71C169.261 453.715 143.966 453.531 99.3657 453.531H0.5V283.683V113.836H18.0337H35.5674V268.708V424.08V424.58H36.0674H111.994C194.445 424.58 217.464 428.038 248.065 444.851C254.125 448.182 258.56 450.25 261.807 451.476C265.044 452.697 267.139 453.097 268.504 453.05Z" stroke="black" stroke-opacity="0.2"/>
<mask id="path-3-inside-1_1182_5" fill="white">
<path fill-rule="evenodd" clip-rule="evenodd" d="M301.32 90.3756C301.32 90.3756 301.301 125.879 301.314 125.879C301.327 125.879 300.629 481 300.629 481C300.609 481 300.672 481 300.653 481H358.493H459.187L463.889 478.951C472.326 475.275 478.364 467.964 480.136 459.281C481.288 453.633 481.288 117.867 480.136 112.219C478.364 103.536 472.326 96.2255 463.889 92.549L459.187 90.5002L360.137 90.3787C304.01 90.3091 303.074 89.9874 301.32 90.3756ZM391.373 110.751C391.997 111.837 391.997 112.722 391.373 113.808C390.516 115.296 389.651 115.336 358.493 115.336C327.334 115.336 326.47 115.296 325.613 113.808C324.988 112.722 324.988 111.837 325.613 110.751C326.47 109.263 327.334 109.223 358.493 109.223C389.651 109.223 390.516 109.263 391.373 110.751ZM461.242 282.311V432.474H358.493L300.724 432.553L301.297 132.148H358.493H461.242V282.311ZM363.166 442.457C366.001 443.453 369.75 446.669 371.307 449.439C373.91 454.072 372.194 461.19 367.61 464.776C358.242 472.104 344.519 466.069 344.519 454.622C344.519 445.934 354.51 439.417 363.166 442.457Z"/>
</mask>
<path fill-rule="evenodd" clip-rule="evenodd" d="M301.32 90.3756C301.32 90.3756 301.301 125.879 301.314 125.879C301.327 125.879 300.629 481 300.629 481C300.609 481 300.672 481 300.653 481H358.493H459.187L463.889 478.951C472.326 475.275 478.364 467.964 480.136 459.281C481.288 453.633 481.288 117.867 480.136 112.219C478.364 103.536 472.326 96.2255 463.889 92.549L459.187 90.5002L360.137 90.3787C304.01 90.3091 303.074 89.9874 301.32 90.3756ZM391.373 110.751C391.997 111.837 391.997 112.722 391.373 113.808C390.516 115.296 389.651 115.336 358.493 115.336C327.334 115.336 326.47 115.296 325.613 113.808C324.988 112.722 324.988 111.837 325.613 110.751C326.47 109.263 327.334 109.223 358.493 109.223C389.651 109.223 390.516 109.263 391.373 110.751ZM461.242 282.311V432.474H358.493L300.724 432.553L301.297 132.148H358.493H461.242V282.311ZM363.166 442.457C366.001 443.453 369.75 446.669 371.307 449.439C373.91 454.072 372.194 461.19 367.61 464.776C358.242 472.104 344.519 466.069 344.519 454.622C344.519 445.934 354.51 439.417 363.166 442.457Z" fill="white"/>
<path d="M301.32 90.3756L301.104 89.3993L300.32 89.5727L300.32 90.3751L301.32 90.3756ZM300.629 481V482H301.627L301.629 481.002L300.629 481ZM459.187 481V482H459.396L459.587 481.917L459.187 481ZM463.889 478.951L464.288 479.868L464.288 479.868L463.889 478.951ZM480.136 459.281L479.156 459.081L479.156 459.081L480.136 459.281ZM480.136 112.219L479.156 112.419L479.156 112.419L480.136 112.219ZM463.889 92.549L464.288 91.6322L464.288 91.6322L463.889 92.549ZM459.187 90.5002L459.587 89.5834L459.396 89.5005L459.188 89.5002L459.187 90.5002ZM360.137 90.3787L360.136 91.3787L360.136 91.3787L360.137 90.3787ZM391.373 110.751L392.239 110.252L392.239 110.252L391.373 110.751ZM391.373 113.808L392.239 114.307L392.239 114.307L391.373 113.808ZM325.613 113.808L324.746 114.307L324.747 114.307L325.613 113.808ZM325.613 110.751L324.747 110.252L324.746 110.252L325.613 110.751ZM461.242 432.474V433.474H462.242V432.474H461.242ZM358.493 432.474V431.474L358.492 431.474L358.493 432.474ZM300.724 432.553L299.724 432.551L299.722 433.555L300.725 433.553L300.724 432.553ZM301.297 132.148V131.148H300.299L300.297 132.146L301.297 132.148ZM461.242 132.148H462.242V131.148H461.242V132.148ZM363.166 442.457L362.835 443.401L362.835 443.401L363.166 442.457ZM371.307 449.439L372.179 448.949L372.179 448.949L371.307 449.439ZM367.61 464.776L368.226 465.564L368.226 465.564L367.61 464.776ZM301.32 90.3756C300.32 90.3751 300.32 90.3752 300.32 90.3755C300.32 90.3758 300.32 90.3762 300.32 90.3767C300.32 90.3778 300.32 90.3794 300.32 90.3816C300.32 90.3859 300.32 90.3923 300.32 90.4008C300.32 90.4179 300.32 90.4434 300.32 90.477C300.32 90.5441 300.32 90.6438 300.32 90.7738C300.32 91.0339 300.319 91.4153 300.319 91.9007C300.319 92.8715 300.318 94.2583 300.317 95.9226C300.315 99.251 300.314 103.689 300.312 108.127C300.31 112.565 300.309 117.003 300.309 120.332C300.309 121.996 300.31 123.383 300.31 124.354C300.311 124.84 300.311 125.222 300.312 125.483C300.312 125.613 300.313 125.714 300.313 125.782C300.313 125.816 300.313 125.844 300.313 125.865C300.314 125.874 300.314 125.885 300.314 125.896C300.314 125.9 300.314 125.911 300.315 125.925C300.315 125.933 300.317 125.958 300.319 125.974C300.324 126.021 300.677 126.65 301.314 126.879V124.879C301.951 125.108 302.304 125.737 302.309 125.783C302.311 125.799 302.312 125.822 302.313 125.83C302.313 125.834 302.313 125.842 302.313 125.844C302.313 125.845 302.313 125.849 302.313 125.849C302.313 125.851 302.313 125.85 302.313 125.842C302.313 125.828 302.313 125.805 302.313 125.772C302.313 125.706 302.312 125.608 302.312 125.478C302.311 125.219 302.311 124.838 302.31 124.353C302.31 123.382 302.309 121.996 302.309 120.332C302.309 117.003 302.31 112.566 302.312 108.128C302.314 103.69 302.315 99.2519 302.317 95.9235C302.318 94.2593 302.319 92.8725 302.319 91.9017C302.319 91.4163 302.32 91.0349 302.32 90.7749C302.32 90.6449 302.32 90.5452 302.32 90.478C302.32 90.4444 302.32 90.419 302.32 90.4019C302.32 90.3934 302.32 90.3869 302.32 90.3826C302.32 90.3805 302.32 90.3789 302.32 90.3778C302.32 90.3773 302.32 90.3769 302.32 90.3766C302.32 90.3763 302.32 90.3762 301.32 90.3756ZM301.314 126.879C300.613 126.592 300.314 125.893 300.314 125.891C300.314 125.892 300.314 125.893 300.314 125.898C300.314 125.908 300.314 125.923 300.314 125.944C300.314 125.986 300.314 126.05 300.314 126.136C300.314 126.306 300.314 126.56 300.313 126.896C300.312 127.568 300.311 128.565 300.309 129.865C300.304 132.466 300.297 136.281 300.288 141.136C300.271 150.847 300.244 164.718 300.213 181.365C300.149 214.657 300.063 259.047 299.976 303.438C299.89 347.828 299.803 392.218 299.738 425.51C299.705 442.157 299.678 456.029 299.659 465.739C299.649 470.594 299.642 474.409 299.637 477.01C299.634 478.31 299.632 479.307 299.631 479.979C299.63 480.315 299.63 480.57 299.629 480.741C299.629 480.826 299.629 480.89 299.629 480.933C299.629 480.955 299.629 480.971 299.629 480.982C299.629 480.987 299.629 480.991 299.629 480.994C299.629 480.997 299.629 480.998 300.629 481C301.629 481.002 301.629 481.001 301.629 480.998C301.629 480.995 301.629 480.991 301.629 480.986C301.629 480.975 301.629 480.959 301.629 480.937C301.629 480.894 301.629 480.83 301.629 480.745C301.63 480.574 301.63 480.319 301.631 479.983C301.632 479.311 301.634 478.314 301.637 477.014C301.642 474.413 301.649 470.598 301.659 465.743C301.678 456.033 301.705 442.161 301.738 425.514C301.803 392.222 301.89 347.832 301.976 303.441C302.063 259.051 302.149 214.661 302.213 181.369C302.244 164.722 302.271 150.85 302.288 141.14C302.297 136.285 302.304 132.47 302.309 129.869C302.311 128.568 302.312 127.571 302.313 126.899C302.314 126.563 302.314 126.308 302.314 126.137C302.314 126.052 302.314 125.987 302.314 125.943C302.314 125.922 302.314 125.904 302.314 125.892C302.314 125.886 302.314 125.88 302.314 125.875C302.314 125.868 302.015 125.166 301.314 124.879V126.879ZM300.629 480C300.629 480 300.629 480 300.629 480C300.629 480 300.629 480 300.629 480C300.629 480 300.629 480 300.628 480C300.628 480 300.628 480 300.628 480C300.628 480 300.628 480 300.628 480C300.628 480 300.628 480 300.628 480C300.628 480 300.628 480 300.628 480C300.628 480 300.628 480 300.628 480C300.628 480 300.628 480 300.628 480C300.628 480 300.628 480 300.628 480C300.628 480 300.628 480 300.628 480C300.628 480 300.628 480 300.628 480C300.628 480 300.628 480 300.627 480C300.627 480 300.627 480 300.627 480C300.627 480 300.627 480 300.627 480C300.627 480 300.627 480 300.627 480C300.627 480 300.627 480 300.627 480C300.627 480 300.627 480 300.627 480C300.627 480 300.627 480 300.627 480C300.627 480 300.627 480 300.627 480C300.627 480 300.627 480 300.627 480C300.627 480 300.627 480 300.627 480C300.627 480 300.627 480 300.627 480C300.627 480 300.627 480 300.627 480C300.627 480 300.627 480 300.627 480C300.627 480 300.626 480 300.626 480C300.626 480 300.626 480 300.626 480C300.626 480 300.626 480 300.626 480C300.626 480 300.626 480 300.626 480C300.626 480 300.626 480 300.626 480C300.626 480 300.626 480 300.626 480C300.626 480 300.626 480 300.626 480C300.626 480 300.626 480 300.626 480C300.626 480 300.626 480 300.626 480C300.626 480 300.626 480 300.626 480C300.626 480 300.626 480 300.626 480C300.626 480 300.626 480 300.626 480C300.626 480 300.626 480 300.626 480C300.626 480 300.626 480 300.626 480C300.626 480 300.626 480 300.626 480C300.626 480 300.626 480 300.626 480C300.626 480 300.626 480 300.626 480C300.626 480 300.626 480 300.626 480C300.626 480 300.626 480 300.625 480C300.625 480 300.625 480 300.625 480C300.625 480 300.625 480 300.625 480C300.625 480 300.625 480 300.625 480C300.625 480 300.625 480 300.625 480C300.625 480 300.625 480 300.625 480C300.625 480 300.625 480 300.625 480C300.625 480 300.625 480 300.625 480C300.625 480 300.625 480 300.625 480C300.625 480 300.625 480 300.625 480C300.625 480 300.625 480 300.625 480C300.625 480 300.625 480 300.625 480C300.625 480 300.625 480 300.625 480C300.625 480 300.625 480 300.625 480C300.625 480 300.625 480 300.625 480C300.625 480 300.625 480 300.625 480C300.625 480 300.625 480 300.625 480C300.625 480 300.625 480 300.625 480C300.625 480 300.625 480 300.625 480C300.625 480 300.625 480 300.625 480C300.625 480 300.625 480 300.625 480C300.625 480 300.625 480 300.625 480C300.625 480 300.625 480 300.625 480C300.625 480 300.625 480 300.625 480C300.625 480 300.625 480 300.625 480C300.625 480 300.625 480 300.625 480C300.625 480 300.625 480 300.625 480C300.625 481 300.625 482 300.625 482C300.625 482 300.625 482 300.625 482C300.625 482 300.625 482 300.625 482C300.625 482 300.625 482 300.625 482C300.625 482 300.625 482 300.625 482C300.625 482 300.625 482 300.625 482C300.625 482 300.625 482 300.625 482C300.625 482 300.625 482 300.625 482C300.625 482 300.625 482 300.625 482C300.625 482 300.625 482 300.625 482C300.625 482 300.625 482 300.625 482C300.625 482 300.625 482 300.625 482C300.625 482 300.625 482 300.625 482C300.625 482 300.625 482 300.625 482C300.625 482 300.625 482 300.625 482C300.625 482 300.625 482 300.625 482C300.625 482 300.625 482 300.625 482C300.625 482 300.625 482 300.625 482C300.625 482 300.625 482 300.625 482C300.625 482 300.625 482 300.625 482C300.625 482 300.625 482 300.625 482C300.625 482 300.625 482 300.625 482C300.625 482 300.625 482 300.625 482C300.625 482 300.625 482 300.625 482C300.625 482 300.625 482 300.625 482C300.625 482 300.625 482 300.625 482C300.625 482 300.625 482 300.625 482C300.625 482 300.625 482 300.625 482C300.626 482 300.626 482 300.626 482C300.626 482 300.626 482 300.626 482C300.626 482 300.626 482 300.626 482C300.626 482 300.626 482 300.626 482C300.626 482 300.626 482 300.626 482C300.626 482 300.626 482 300.626 482C300.626 482 300.626 482 300.626 482C300.626 482 300.626 482 300.626 482C300.626 482 300.626 482 300.626 482C300.626 482 300.626 482 300.626 482C300.626 482 300.626 482 300.626 482C300.626 482 300.626 482 300.626 482C300.626 482 300.626 482 300.626 482C300.626 482 300.626 482 300.626 482C300.626 482 300.626 482 300.626 482C300.626 482 300.626 482 300.626 482C300.626 482 300.626 482 300.626 482C300.626 482 300.626 482 300.626 482C300.626 482 300.626 482 300.626 482C300.626 482 300.626 482 300.626 482C300.626 482 300.626 482 300.626 482C300.627 482 300.627 482 300.627 482C300.627 482 300.627 482 300.627 482C300.627 482 300.627 482 300.627 482C300.627 482 300.627 482 300.627 482C300.627 482 300.627 482 300.627 482C300.627 482 300.627 482 300.627 482C300.627 482 300.627 482 300.627 482C300.627 482 300.627 482 300.627 482C300.627 482 300.627 482 300.627 482C300.627 482 300.627 482 300.627 482C300.627 482 300.627 482 300.627 482C300.627 482 300.627 482 300.627 482C300.627 482 300.627 482 300.627 482C300.627 482 300.627 482 300.627 482C300.627 482 300.627 482 300.627 482C300.627 482 300.628 482 300.628 482C300.628 482 300.628 482 300.628 482C300.628 482 300.628 482 300.628 482C300.628 482 300.628 482 300.628 482C300.628 482 300.628 482 300.628 482C300.628 482 300.628 482 300.628 482C300.628 482 300.628 482 300.628 482C300.628 482 300.628 482 300.628 482C300.628 482 300.628 482 300.628 482C300.628 482 300.628 482 300.628 482C300.628 482 300.628 482 300.628 482C300.628 482 300.628 482 300.628 482C300.628 482 300.628 482 300.628 482C300.629 482 300.629 482 300.629 482C300.629 482 300.629 482 300.629 482C300.629 482 300.629 482 300.629 482C300.629 482 300.629 482 300.629 482C300.629 482 300.629 482 300.629 482C300.629 482 300.629 482 300.629 482C300.629 482 300.629 482 300.629 482C300.629 482 300.629 482 300.629 482C300.629 482 300.629 482 300.629 482C300.629 482 300.629 482 300.629 482C300.629 482 300.629 482 300.629 482C300.629 482 300.63 482 300.63 482C300.63 482 300.63 482 300.63 482C300.63 482 300.63 482 300.63 482C300.63 482 300.63 482 300.63 482C300.63 482 300.63 482 300.63 482C300.63 482 300.63 482 300.63 482C300.63 482 300.63 482 300.63 482C300.63 482 300.63 482 300.63 482C300.63 482 300.63 482 300.63 482C300.63 482 300.63 482 300.63 482C300.63 482 300.63 482 300.63 482C300.631 482 300.631 482 300.631 482C300.631 482 300.631 482 300.631 482C300.631 482 300.631 482 300.631 482C300.631 482 300.631 482 300.631 482C300.631 482 300.631 482 300.631 482C300.631 482 300.631 482 300.631 482C300.631 482 300.631 482 300.631 482C300.631 482 300.631 482 300.631 482C300.631 482 300.631 482 300.631 482C300.631 482 300.631 482 300.632 482C300.632 482 300.632 482 300.632 482C300.632 482 300.632 482 300.632 482C300.632 482 300.632 482 300.632 482C300.632 482 300.632 482 300.632 482C300.632 482 300.632 482 300.632 482C300.632 482 300.632 482 300.632 482C300.632 482 300.632 482 300.632 482C300.632 482 300.632 482 300.632 482C300.632 482 300.632 482 300.632 482C300.633 482 300.633 482 300.633 482C300.633 482 300.633 482 300.633 482C300.633 482 300.633 482 300.633 482C300.633 482 300.633 482 300.633 482C300.633 482 300.633 482 300.633 482C300.633 482 300.633 482 300.633 482C300.633 482 300.633 482 300.633 482C300.633 482 300.633 482 300.633 482C300.633 482 300.633 482 300.634 482C300.634 482 300.634 482 300.634 482C300.634 482 300.634 482 300.634 482C300.634 482 300.634 482 300.634 482C300.634 482 300.634 482 300.634 482C300.634 482 300.634 482 300.634 482C300.634 482 300.634 482 300.634 482C300.634 482 300.634 482 300.634 482C300.634 482 300.634 482 300.634 482C300.634 482 300.635 482 300.635 482C300.635 482 300.635 482 300.635 482C300.635 482 300.635 482 300.635 482C300.635 482 300.635 482 300.635 482C300.635 482 300.635 482 300.635 482C300.635 482 300.635 482 300.635 482C300.635 482 300.635 482 300.635 482C300.635 482 300.635 482 300.635 482C300.635 482 300.635 482 300.636 482C300.636 482 300.636 482 300.636 482C300.636 482 300.636 482 300.636 482C300.636 482 300.636 482 300.636 482C300.636 482 300.636 482 300.636 482C300.636 482 300.636 482 300.636 482C300.636 482 300.636 482 300.636 482C300.636 482 300.636 482 300.636 482C300.636 482 300.636 482 300.636 482C300.637 482 300.637 482 300.637 482C300.637 482 300.637 482 300.637 482C300.637 482 300.637 482 300.637 482C300.637 482 300.637 482 300.637 482C300.637 482 300.637 482 300.637 482C300.637 482 300.637 482 300.637 482C300.637 482 300.637 482 300.637 482C300.637 482 300.637 482 300.637 482C300.638 482 300.638 482 300.638 482C300.638 482 300.638 482 300.638 482C300.638 482 300.638 482 300.638 482C300.638 482 300.638 482 300.638 482C300.638 482 300.638 482 300.638 482C300.638 482 300.638 482 300.638 482C300.638 482 300.638 482 300.638 482C300.638 482 300.638 482 300.638 482C300.639 482 300.639 482 300.639 482C300.639 482 300.639 482 300.639 482C300.639 482 300.639 482 300.639 482C300.639 482 300.639 482 300.639 482C300.639 482 300.639 482 300.639 482C300.639 482 300.639 482 300.639 482C300.639 482 300.639 482 300.639 482C300.639 482 300.639 482 300.64 482C300.64 482 300.64 482 300.64 482C300.64 482 300.64 482 300.64 482C300.64 482 300.64 482 300.64 482C300.64 482 300.64 482 300.64 482C300.64 482 300.64 482 300.64 482C300.64 482 300.64 482 300.64 482C300.64 482 300.64 482 300.64 482C300.64 482 300.64 482 300.641 482C300.641 482 300.641 482 300.641 482C300.641 482 300.641 482 300.641 482C300.641 482 300.641 482 300.641 482C300.641 482 300.641 482 300.641 482C300.641 482 300.641 482 300.641 482C300.641 482 300.641 482 300.641 482C300.641 482 300.641 482 300.641 482C300.641 482 300.641 482 300.642 482C300.642 482 300.642 482 300.642 482C300.642 482 300.642 482 300.642 482C300.642 482 300.642 482 300.642 482C300.642 482 300.642 482 300.642 482C300.642 482 300.642 482 300.642 482C300.642 482 300.642 482 300.642 482C300.642 482 300.642 482 300.642 482C300.642 482 300.643 482 300.643 482C300.643 482 300.643 482 300.643 482C300.643 482 300.643 482 300.643 482C300.643 482 300.643 482 300.643 482C300.643 482 300.643 482 300.643 482C300.643 482 300.643 482 300.643 482C300.643 482 300.643 482 300.643 482C300.643 482 300.643 482 300.643 482C300.643 482 300.644 482 300.644 482C300.644 482 300.644 482 300.644 482C300.644 482 300.644 482 300.644 482C300.644 482 300.644 482 300.644 482C300.644 482 300.644 482 300.644 482C300.644 482 300.644 482 300.644 482C300.644 482 300.644 482 300.644 482C300.644 482 300.644 482 300.644 482C300.644 482 300.645 482 300.645 482C300.645 482 300.645 482 300.645 482C300.645 482 300.645 482 300.645 482C300.645 482 300.645 482 300.645 482C300.645 482 300.645 482 300.645 482C300.645 482 300.645 482 300.645 482C300.645 482 300.645 482 300.645 482C300.645 482 300.645 482 300.645 482C300.645 482 300.646 482 300.646 482C300.646 482 300.646 482 300.646 482C300.646 482 300.646 482 300.646 482C300.646 482 300.646 482 300.646 482C300.646 482 300.646 482 300.646 482C300.646 482 300.646 482 300.646 482C300.646 482 300.646 482 300.646 482C300.646 482 300.646 482 300.646 482C300.646 482 300.646 482 300.647 482C300.647 482 300.647 482 300.647 482C300.647 482 300.647 482 300.647 482C300.647 482 300.647 482 300.647 482C300.647 482 300.647 482 300.647 482C300.647 482 300.647 482 300.647 482C300.647 482 300.647 482 300.647 482C300.647 482 300.647 482 300.647 482C300.647 482 300.647 482 300.647 482C300.648 482 300.648 482 300.648 482C300.648 482 300.648 482 300.648 482C300.648 482 300.648 482 300.648 482C300.648 482 300.648 482 300.648 482C300.648 482 300.648 482 300.648 482C300.648 482 300.648 482 300.648 482C300.648 482 300.648 482 300.648 482C300.648 482 300.648 482 300.648 482C300.648 482 300.648 482 300.648 482C300.649 482 300.649 482 300.649 482C300.649 482 300.649 482 300.649 482C300.649 482 300.649 482 300.649 482C300.649 482 300.649 482 300.649 482C300.649 482 300.649 482 300.649 482C300.649 482 300.649 482 300.649 482C300.649 482 300.649 482 300.649 482C300.649 482 300.649 482 300.649 482C300.649 482 300.649 482 300.649 482C300.65 482 300.65 482 300.65 482C300.65 482 300.65 482 300.65 482C300.65 482 300.65 482 300.65 482C300.65 482 300.65 482 300.65 482C300.65 482 300.65 482 300.65 482C300.65 482 300.65 482 300.65 482C300.65 482 300.65 482 300.65 482C300.65 482 300.65 482 300.65 482C300.65 482 300.65 482 300.65 482C300.65 482 300.651 482 300.651 482C300.651 482 300.651 482 300.651 482C300.651 482 300.651 482 300.651 482C300.651 482 300.651 482 300.651 482C300.651 482 300.651 482 300.651 482C300.651 482 300.651 482 300.651 482C300.651 482 300.651 482 300.651 482C300.651 482 300.651 482 300.651 482C300.651 482 300.651 482 300.651 482C300.651 482 300.651 482 300.651 482C300.651 482 300.652 482 300.652 482C300.652 482 300.652 482 300.652 482C300.652 482 300.652 482 300.652 482C300.652 482 300.652 482 300.652 482C300.652 482 300.652 482 300.652 482C300.652 482 300.652 482 300.652 482C300.652 482 300.652 482 300.652 482C300.652 482 300.652 482 300.652 482C300.652 482 300.652 482 300.652 482C300.652 482 300.652 482 300.652 482C300.652 482 300.652 482 300.652 482C300.653 482 300.653 482 300.653 482C300.653 482 300.653 482 300.653 482C300.653 482 300.653 482 300.653 482C300.653 482 300.653 482 300.653 482C300.653 482 300.653 482 300.653 482C300.653 482 300.653 482 300.653 482C300.653 482 300.653 482 300.653 482C300.653 482 300.653 482 300.653 482C300.653 482 300.653 482 300.653 482C300.653 482 300.653 482 300.653 482C300.653 482 300.653 482 300.653 482C300.653 482 300.653 482 300.653 482C300.654 482 300.654 482 300.654 482C300.654 482 300.654 482 300.654 482C300.654 482 300.654 482 300.654 482C300.654 482 300.654 482 300.654 482C300.654 482 300.654 482 300.654 482C300.654 482 300.654 482 300.654 482C300.654 482 300.654 482 300.654 482C300.654 482 300.654 482 300.654 482C300.654 482 300.654 482 300.654 482C300.654 482 300.654 482 300.654 482C300.654 482 300.654 482 300.654 482C300.654 482 300.654 482 300.654 482C300.654 482 300.654 482 300.654 482C300.654 482 300.654 482 300.655 482C300.655 482 300.655 482 300.655 482C300.655 482 300.655 482 300.655 482C300.655 482 300.655 482 300.655 482C300.655 482 300.655 482 300.655 482C300.655 482 300.655 482 300.655 482C300.655 482 300.655 482 300.655 482C300.655 482 300.655 482 300.655 482C300.655 482 300.655 482 300.655 482C300.655 482 300.655 482 300.655 482C300.655 482 300.655 482 300.655 482C300.655 482 300.655 482 300.655 482C300.655 482 300.655 482 300.655 482C300.655 482 300.655 482 300.655 482C300.655 482 300.655 482 300.655 482C300.655 482 300.655 482 300.655 482C300.655 482 300.655 482 300.655 482C300.655 482 300.655 482 300.656 482C300.656 482 300.656 482 300.656 482C300.656 482 300.656 482 300.656 482C300.656 482 300.656 482 300.656 482C300.656 482 300.656 482 300.656 482C300.656 482 300.656 482 300.656 482C300.656 482 300.656 482 300.656 482C300.656 482 300.656 482 300.656 482C300.656 482 300.656 482 300.656 482C300.656 482 300.656 482 300.656 482C300.656 482 300.656 482 300.656 482C300.656 482 300.656 482 300.656 482C300.656 482 300.656 482 300.656 482C300.656 482 300.656 482 300.656 482C300.656 482 300.656 482 300.656 482C300.656 482 300.656 482 300.656 482C300.656 482 300.656 482 300.656 482C300.656 482 300.656 482 300.656 482C300.656 482 300.656 482 300.656 482C300.656 482 300.656 482 300.656 482C300.656 482 300.656 482 300.656 482C300.656 482 300.656 482 300.656 482C300.656 482 300.656 482 300.656 482C300.656 482 300.656 482 300.656 482C300.656 482 300.656 482 300.656 482C300.656 482 300.656 482 300.656 482C300.656 482 300.656 482 300.656 482C300.656 482 300.656 482 300.656 482C300.656 482 300.656 482 300.656 482C300.656 482 300.656 482 300.656 482C300.656 482 300.656 482 300.656 482C300.656 482 300.656 482 300.656 482C300.656 482 300.656 482 300.657 482C300.657 482 300.657 482 300.657 482C300.657 482 300.657 482 300.657 482C300.657 482 300.657 482 300.657 482C300.657 482 300.657 482 300.657 482C300.657 482 300.657 482 300.657 482C300.657 482 300.657 482 300.657 482C300.657 482 300.657 482 300.657 482C300.657 482 300.657 482 300.657 482C300.657 482 300.657 481 300.657 480C300.657 480 300.657 480 300.657 480C300.657 480 300.657 480 300.657 480C300.657 480 300.657 480 300.657 480C300.657 480 300.657 480 300.657 480C300.657 480 300.657 480 300.657 480C300.657 480 300.657 480 300.657 480C300.657 480 300.657 480 300.657 480C300.657 480 300.657 480 300.657 480C300.657 480 300.656 480 300.656 480C300.656 480 300.656 480 300.656 480C300.656 480 300.656 480 300.656 480C300.656 480 300.656 480 300.656 480C300.656 480 300.656 480 300.656 480C300.656 480 300.656 480 300.656 480C300.656 480 300.656 480 300.656 480C300.656 480 300.656 480 300.656 480C300.656 480 300.656 480 300.656 480C300.656 480 300.656 480 300.656 480C300.656 480 300.656 480 300.656 480C300.656 480 300.656 480 300.656 480C300.656 480 300.656 480 300.656 480C300.656 480 300.656 480 300.656 480C300.656 480 300.656 480 300.656 480C300.656 480 300.656 480 300.656 480C300.656 480 300.656 480 300.656 480C300.656 480 300.656 480 300.656 480C300.656 480 300.656 480 300.656 480C300.656 480 300.656 480 300.656 480C300.656 480 300.656 480 300.656 480C300.656 480 300.656 480 300.656 480C300.656 480 300.656 480 300.656 480C300.656 480 300.656 480 300.656 480C300.656 480 300.656 480 300.656 480C300.656 480 300.656 480 300.656 480C300.656 480 300.656 480 300.656 480C300.656 480 300.656 480 300.656 480C300.656 480 300.656 480 300.656 480C300.656 480 300.655 480 300.655 480C300.655 480 300.655 480 300.655 480C300.655 480 300.655 480 300.655 480C300.655 480 300.655 480 300.655 480C300.655 480 300.655 480 300.655 480C300.655 480 300.655 480 300.655 480C300.655 480 300.655 480 300.655 480C300.655 480 300.655 480 300.655 480C300.655 480 300.655 480 300.655 480C300.655 480 300.655 480 300.655 480C300.655 480 300.655 480 300.655 480C300.655 480 300.655 480 300.655 480C300.655 480 300.655 480 300.655 480C300.655 480 300.655 480 300.655 480C300.655 480 300.655 480 300.654 480C300.654 480 300.654 480 300.654 480C300.654 480 300.654 480 300.654 480C300.654 480 300.654 480 300.654 480C300.654 480 300.654 480 300.654 480C300.654 480 300.654 480 300.654 480C300.654 480 300.654 480 300.654 480C300.654 480 300.654 480 300.654 480C300.654 480 300.654 480 300.654 480C300.654 480 300.654 480 300.654 480C300.654 480 300.654 480 300.654 480C300.654 480 300.654 480 300.653 480C300.653 480 300.653 480 300.653 480C300.653 480 300.653 480 300.653 480C300.653 480 300.653 480 300.653 480C300.653 480 300.653 480 300.653 480C300.653 480 300.653 480 300.653 480C300.653 480 300.653 480 300.653 480C300.653 480 300.653 480 300.653 480V482C300.653 482 300.653 482 300.653 482C300.653 482 300.653 482 300.653 482C300.653 482 300.653 482 300.653 482C300.653 482 300.653 482 300.653 482C300.653 482 300.653 482 300.653 482C300.653 482 300.653 482 300.653 482C300.653 482 300.653 482 300.653 482C300.654 482 300.654 482 300.654 482C300.654 482 300.654 482 300.654 482C300.654 482 300.654 482 300.654 482C300.654 482 300.654 482 300.654 482C300.654 482 300.654 482 300.654 482C300.654 482 300.654 482 300.654 482C300.654 482 300.654 482 300.654 482C300.654 482 300.654 482 300.654 482C300.654 482 300.654 482 300.654 482C300.654 482 300.654 482 300.654 482C300.654 482 300.654 482 300.654 482C300.655 482 300.655 482 300.655 482C300.655 482 300.655 482 300.655 482C300.655 482 300.655 482 300.655 482C300.655 482 300.655 482 300.655 482C300.655 482 300.655 482 300.655 482C300.655 482 300.655 482 300.655 482C300.655 482 300.655 482 300.655 482C300.655 482 300.655 482 300.655 482C300.655 482 300.655 482 300.655 482C300.655 482 300.655 482 300.655 482C300.655 482 300.655 482 300.655 482C300.655 482 300.655 482 300.655 482C300.655 482 300.655 482 300.655 482C300.655 482 300.655 482 300.655 482C300.655 482 300.656 482 300.656 482C300.656 482 300.656 482 300.656 482C300.656 482 300.656 482 300.656 482C300.656 482 300.656 482 300.656 482C300.656 482 300.656 482 300.656 482C300.656 482 300.656 482 300.656 482C300.656 482 300.656 482 300.656 482C300.656 482 300.656 482 300.656 482C300.656 482 300.656 482 300.656 482C300.656 482 300.656 482 300.656 482C300.656 482 300.656 482 300.656 482C300.656 482 300.656 482 300.656 482C300.656 482 300.656 482 300.656 482C300.656 482 300.656 482 300.656 482C300.656 482 300.656 482 300.656 482C300.656 482 300.656 482 300.656 482C300.656 482 300.656 482 300.656 482C300.656 482 300.656 482 300.656 482C300.656 482 300.656 482 300.656 482C300.656 482 300.656 482 300.656 482C300.656 482 300.656 482 300.656 482C300.656 482 300.656 482 300.656 482C300.656 482 300.656 482 300.656 482C300.656 482 300.656 482 300.656 482C300.656 482 300.656 482 300.656 482C300.656 482 300.656 482 300.656 482C300.656 482 300.656 482 300.656 482C300.656 482 300.656 482 300.656 482C300.656 482 300.656 482 300.656 482C300.656 482 300.657 482 300.657 482C300.657 482 300.657 482 300.657 482C300.657 482 300.657 482 300.657 482C300.657 482 300.657 482 300.657 482C300.657 482 300.657 482 300.657 482C300.657 482 300.657 482 300.657 482C300.657 482 300.657 482 300.657 482C300.657 482 300.657 482 300.657 482C300.657 482 300.657 482 300.657 482C300.657 481 300.657 480 300.657 480C300.657 480 300.657 480 300.657 480C300.657 480 300.657 480 300.657 480C300.657 480 300.657 480 300.657 480C300.657 480 300.657 480 300.657 480C300.657 480 300.657 480 300.657 480C300.657 480 300.657 480 300.657 480C300.657 480 300.657 480 300.657 480C300.657 480 300.657 480 300.657 480C300.656 480 300.656 480 300.656 480C300.656 480 300.656 480 300.656 480C300.656 480 300.656 480 300.656 480C300.656 480 300.656 480 300.656 480C300.656 480 300.656 480 300.656 480C300.656 480 300.656 480 300.656 480C300.656 480 300.656 480 300.656 480C300.656 480 300.656 480 300.656 480C300.656 480 300.656 480 300.656 480C300.656 480 300.656 480 300.656 480C300.656 480 300.656 480 300.656 480C300.656 480 300.656 480 300.656 480C300.656 480 300.656 480 300.656 480C300.656 480 300.656 480 300.656 480C300.656 480 300.656 480 300.656 480C300.656 480 300.656 480 300.656 480C300.656 480 300.656 480 300.656 480C300.656 480 300.656 480 300.656 480C300.656 480 300.656 480 300.656 480C300.656 480 300.656 480 300.656 480C300.656 480 300.656 480 300.656 480C300.656 480 300.656 480 300.656 480C300.656 480 300.656 480 300.656 480C300.656 480 300.656 480 300.656 480C300.656 480 300.656 480 300.656 480C300.656 480 300.656 480 300.656 480C300.656 480 300.656 480 300.656 480C300.656 480 300.656 480 300.656 480C300.656 480 300.656 480 300.656 480C300.656 480 300.656 480 300.656 480C300.656 480 300.656 480 300.656 480C300.656 480 300.656 480 300.656 480C300.655 480 300.655 480 300.655 480C300.655 480 300.655 480 300.655 480C300.655 480 300.655 480 300.655 480C300.655 480 300.655 480 300.655 480C300.655 480 300.655 480 300.655 480C300.655 480 300.655 480 300.655 480C300.655 480 300.655 480 300.655 480C300.655 480 300.655 480 300.655 480C300.655 480 300.655 480 300.655 480C300.655 480 300.655 480 300.655 480C300.655 480 300.655 480 300.655 480C300.655 480 300.655 480 300.655 480C300.655 480 300.655 480 300.655 480C300.655 480 300.655 480 300.655 480C300.655 480 300.655 480 300.655 480C300.655 480 300.655 480 300.655 480C300.655 480 300.655 480 300.655 480C300.654 480 300.654 480 300.654 480C300.654 480 300.654 480 300.654 480C300.654 480 300.654 480 300.654 480C300.654 480 300.654 480 300.654 480C300.654 480 300.654 480 300.654 480C300.654 480 300.654 480 300.654 480C300.654 480 300.654 480 300.654 480C300.654 480 300.654 480 300.654 480C300.654 480 300.654 480 300.654 480C300.654 480 300.654 480 300.654 480C300.654 480 300.654 480 300.654 480C300.654 480 300.654 480 300.654 480C300.654 480 300.654 480 300.654 480C300.654 480 300.654 480 300.653 480C300.653 480 300.653 480 300.653 480C300.653 480 300.653 480 300.653 480C300.653 480 300.653 480 300.653 480C300.653 480 300.653 480 300.653 480C300.653 480 300.653 480 300.653 480C300.653 480 300.653 480 300.653 480C300.653 480 300.653 480 300.653 480C300.653 480 300.653 480 300.653 480C300.653 480 300.653 480 300.653 480C300.653 480 300.653 480 300.653 480C300.653 480 300.653 480 300.653 480C300.653 480 300.653 480 300.652 480C300.652 480 300.652 480 300.652 480C300.652 480 300.652 480 300.652 480C300.652 480 300.652 480 300.652 480C300.652 480 300.652 480 300.652 480C300.652 480 300.652 480 300.652 480C300.652 480 300.652 480 300.652 480C300.652 480 300.652 480 300.652 480C300.652 480 300.652 480 300.652 480C300.652 480 300.652 480 300.652 480C300.652 480 300.652 480 300.652 480C300.652 480 300.651 480 300.651 480C300.651 480 300.651 480 300.651 480C300.651 480 300.651 480 300.651 480C300.651 480 300.651 480 300.651 480C300.651 480 300.651 480 300.651 480C300.651 480 300.651 480 300.651 480C300.651 480 300.651 480 300.651 480C300.651 480 300.651 480 300.651 480C300.651 480 300.651 480 300.651 480C300.651 480 300.651 480 300.651 480C300.651 480 300.65 480 300.65 480C300.65 480 300.65 480 300.65 480C300.65 480 300.65 480 300.65 480C300.65 480 300.65 480 300.65 480C300.65 480 300.65 480 300.65 480C300.65 480 300.65 480 300.65 480C300.65 480 300.65 480 300.65 480C300.65 480 300.65 480 300.65 480C300.65 480 300.65 480 300.65 480C300.65 480 300.65 480 300.649 480C300.649 480 300.649 480 300.649 480C300.649 480 300.649 480 300.649 480C300.649 480 300.649 480 300.649 480C300.649 480 300.649 480 300.649 480C300.649 480 300.649 480 300.649 480C300.649 480 300.649 480 300.649 480C300.649 480 300.649 480 300.649 480C300.649 480 300.649 480 300.649 480C300.649 480 300.649 480 300.648 480C300.648 480 300.648 480 300.648 480C300.648 480 300.648 480 300.648 480C300.648 480 300.648 480 300.648 480C300.648 480 300.648 480 300.648 480C300.648 480 300.648 480 300.648 480C300.648 480 300.648 480 300.648 480C300.648 480 300.648 480 300.648 480C300.648 480 300.648 480 300.648 480C300.648 480 300.648 480 300.647 480C300.647 480 300.647 480 300.647 480C300.647 480 300.647 480 300.647 480C300.647 480 300.647 480 300.647 480C300.647 480 300.647 480 300.647 480C300.647 480 300.647 480 300.647 480C300.647 480 300.647 480 300.647 480C300.647 480 300.647 480 300.647 480C300.647 480 300.647 480 300.647 480C300.646 480 300.646 480 300.646 480C300.646 480 300.646 480 300.646 480C300.646 480 300.646 480 300.646 480C300.646 480 300.646 480 300.646 480C300.646 480 300.646 480 300.646 480C300.646 480 300.646 480 300.646 480C300.646 480 300.646 480 300.646 480C300.646 480 300.646 480 300.646 480C300.646 480 300.645 480 300.645 480C300.645 480 300.645 480 300.645 480C300.645 480 300.645 480 300.645 480C300.645 480 300.645 480 300.645 480C300.645 480 300.645 480 300.645 480C300.645 480 300.645 480 300.645 480C300.645 480 300.645 480 300.645 480C300.645 480 300.645 480 300.645 480C300.645 480 300.644 480 300.644 480C300.644 480 300.644 480 300.644 480C300.644 480 300.644 480 300.644 480C300.644 480 300.644 480 300.644 480C300.644 480 300.644 480 300.644 480C300.644 480 300.644 480 300.644 480C300.644 480 300.644 480 300.644 480C300.644 480 300.644 480 300.644 480C300.644 480 300.643 480 300.643 480C300.643 480 300.643 480 300.643 480C300.643 480 300.643 480 300.643 480C300.643 480 300.643 480 300.643 480C300.643 480 300.643 480 300.643 480C300.643 480 300.643 480 300.643 480C300.643 480 300.643 480 300.643 480C300.643 480 300.643 480 300.643 480C300.643 480 300.642 480 300.642 480C300.642 480 300.642 480 300.642 480C300.642 480 300.642 480 300.642 480C300.642 480 300.642 480 300.642 480C300.642 480 300.642 480 300.642 480C300.642 480 300.642 480 300.642 480C300.642 480 300.642 480 300.642 480C300.642 480 300.642 480 300.642 480C300.641 480 300.641 480 300.641 480C300.641 480 300.641 480 300.641 480C300.641 480 300.641 480 300.641 480C300.641 480 300.641 480 300.641 480C300.641 480 300.641 480 300.641 480C300.641 480 300.641 480 300.641 480C300.641 480 300.641 480 300.641 480C300.641 480 300.641 480 300.641 480C300.64 480 300.64 480 300.64 480C300.64 480 300.64 480 300.64 480C300.64 480 300.64 480 300.64 480C300.64 480 300.64 480 300.64 480C300.64 480 300.64 480 300.64 480C300.64 480 300.64 480 300.64 480C300.64 480 300.64 480 300.64 480C300.64 480 300.64 480 300.64 480C300.639 480 300.639 480 300.639 480C300.639 480 300.639 480 300.639 480C300.639 480 300.639 480 300.639 480C300.639 480 300.639 480 300.639 480C300.639 480 300.639 480 300.639 480C300.639 480 300.639 480 300.639 480C300.639 480 300.639 480 300.639 480C300.639 480 300.639 480 300.638 480C300.638 480 300.638 480 300.638 480C300.638 480 300.638 480 300.638 480C300.638 480 300.638 480 300.638 480C300.638 480 300.638 480 300.638 480C300.638 480 300.638 480 300.638 480C300.638 480 300.638 480 300.638 480C300.638 480 300.638 480 300.638 480C300.638 480 300.638 480 300.637 480C300.637 480 300.637 480 300.637 480C300.637 480 300.637 480 300.637 480C300.637 480 300.637 480 300.637 480C300.637 480 300.637 480 300.637 480C300.637 480 300.637 480 300.637 480C300.637 480 300.637 480 300.637 480C300.637 480 300.637 480 300.637 480C300.637 480 300.637 480 300.636 480C300.636 480 300.636 480 300.636 480C300.636 480 300.636 480 300.636 480C300.636 480 300.636 480 300.636 480C300.636 480 300.636 480 300.636 480C300.636 480 300.636 480 300.636 480C300.636 480 300.636 480 300.636 480C300.636 480 300.636 480 300.636 480C300.636 480 300.636 480 300.636 480C300.635 480 300.635 480 300.635 480C300.635 480 300.635 480 300.635 480C300.635 480 300.635 480 300.635 480C300.635 480 300.635 480 300.635 480C300.635 480 300.635 480 300.635 480C300.635 480 300.635 480 300.635 480C300.635 480 300.635 480 300.635 480C300.635 480 300.635 480 300.635 480C300.635 480 300.634 480 300.634 480C300.634 480 300.634 480 300.634 480C300.634 480 300.634 480 300.634 480C300.634 480 300.634 480 300.634 480C300.634 480 300.634 480 300.634 480C300.634 480 300.634 480 300.634 480C300.634 480 300.634 480 300.634 480C300.634 480 300.634 480 300.634 480C300.634 480 300.634 480 300.634 480C300.633 480 300.633 480 300.633 480C300.633 480 300.633 480 300.633 480C300.633 480 300.633 480 300.633 480C300.633 480 300.633 480 300.633 480C300.633 480 300.633 480 300.633 480C300.633 480 300.633 480 300.633 480C300.633 480 300.633 480 300.633 480C300.633 480 300.633 480 300.633 480C300.633 480 300.633 480 300.632 480C300.632 480 300.632 480 300.632 480C300.632 480 300.632 480 300.632 480C300.632 480 300.632 480 300.632 480C300.632 480 300.632 480 300.632 480C300.632 480 300.632 480 300.632 480C300.632 480 300.632 480 300.632 480C300.632 480 300.632 480 300.632 480C300.632 480 300.632 480 300.632 480C300.632 480 300.632 480 300.632 480C300.631 480 300.631 480 300.631 480C300.631 480 300.631 480 300.631 480C300.631 480 300.631 480 300.631 480C300.631 480 300.631 480 300.631 480C300.631 480 300.631 480 300.631 480C300.631 480 300.631 480 300.631 480C300.631 480 300.631 480 300.631 480C300.631 480 300.631 480 300.631 480C300.631 480 300.631 480 300.631 480C300.631 480 300.631 480 300.63 480C300.63 480 300.63 480 300.63 480C300.63 480 300.63 480 300.63 480C300.63 480 300.63 480 300.63 480C300.63 480 300.63 480 300.63 480C300.63 480 300.63 480 300.63 480C300.63 480 300.63 480 300.63 480C300.63 480 300.63 480 300.63 480C300.63 480 300.63 480 300.63 480C300.63 480 300.63 480 300.63 480C300.63 480 300.63 480 300.63 480C300.63 480 300.629 480 300.629 480C300.629 480 300.629 480 300.629 480C300.629 480 300.629 480 300.629 480C300.629 480 300.629 480 300.629 480C300.629 480 300.629 480 300.629 480C300.629 480 300.629 480 300.629 480C300.629 480 300.629 480 300.629 480C300.629 480 300.629 480 300.629 480C300.629 480 300.629 480 300.629 480C300.629 480 300.629 480 300.629 480C300.629 480 300.629 480 300.629 480C300.629 480 300.629 480 300.628 480C300.628 480 300.628 480 300.628 480C300.628 480 300.628 480 300.628 480C300.628 480 300.628 480 300.628 480C300.628 480 300.628 480 300.628 480C300.628 480 300.628 480 300.628 480C300.628 480 300.628 480 300.628 480C300.628 480 300.628 480 300.628 480C300.628 480 300.628 480 300.628 480C300.628 480 300.628 480 300.628 480C300.628 480 300.628 480 300.628 480C300.628 480 300.628 480 300.628 480C300.628 480 300.628 480 300.628 480C300.628 480 300.627 480 300.627 480C300.627 480 300.627 480 300.627 480C300.627 480 300.627 480 300.627 480C300.627 480 300.627 480 300.627 480C300.627 480 300.627 480 300.627 480C300.627 480 300.627 480 300.627 480C300.627 480 300.627 480 300.627 480C300.627 480 300.627 480 300.627 480C300.627 480 300.627 480 300.627 480C300.627 480 300.627 480 300.627 480C300.627 480 300.627 480 300.627 480C300.627 480 300.627 480 300.627 480C300.627 480 300.627 480 300.627 480C300.627 480 300.627 480 300.627 480C300.627 480 300.627 480 300.627 480C300.627 480 300.627 480 300.626 480C300.626 480 300.626 480 300.626 480C300.626 480 300.626 480 300.626 480C300.626 480 300.626 480 300.626 480C300.626 480 300.626 480 300.626 480C300.626 480 300.626 480 300.626 480C300.626 480 300.626 480 300.626 480C300.626 480 300.626 480 300.626 480C300.626 480 300.626 480 300.626 480C300.626 480 300.626 480 300.626 480C300.626 480 300.626 480 300.626 480C300.626 480 300.626 480 300.626 480C300.626 480 300.626 480 300.626 480C300.626 480 300.626 480 300.626 480C300.626 480 300.626 480 300.626 480C300.626 480 300.626 480 300.626 480C300.626 480 300.626 480 300.626 480C300.626 480 300.626 480 300.626 480C300.626 480 300.626 480 300.626 480C300.626 480 300.626 480 300.626 480C300.626 480 300.626 480 300.626 480C300.626 480 300.626 480 300.625 480C300.625 480 300.625 480 300.625 480C300.625 480 300.625 480 300.625 480C300.625 480 300.625 480 300.625 480C300.625 480 300.625 480 300.625 480C300.625 480 300.625 480 300.625 480C300.625 480 300.625 480 300.625 480C300.625 480 300.625 480 300.625 480C300.625 480 300.625 480 300.625 480C300.625 480 300.625 480 300.625 480C300.625 480 300.625 480 300.625 480C300.625 480 300.625 480 300.625 480C300.625 480 300.625 480 300.625 480C300.625 480 300.625 480 300.625 480C300.625 480 300.625 480 300.625 480C300.625 480 300.625 480 300.625 480C300.625 480 300.625 480 300.625 480C300.625 480 300.625 480 300.625 480C300.625 480 300.625 480 300.625 480C300.625 480 300.625 480 300.625 480C300.625 480 300.625 480 300.625 480C300.625 480 300.625 480 300.625 480C300.625 480 300.625 480 300.625 480C300.625 480 300.625 480 300.625 480C300.625 480 300.625 480 300.625 480C300.625 480 300.625 480 300.625 480C300.625 480 300.625 480 300.625 480C300.625 480 300.625 480 300.625 480C300.625 480 300.625 481 300.625 482C300.625 482 300.625 482 300.625 482C300.625 482 300.625 482 300.625 482C300.625 482 300.625 482 300.625 482C300.625 482 300.625 482 300.625 482C300.625 482 300.625 482 300.625 482C300.625 482 300.625 482 300.625 482C300.625 482 300.625 482 300.625 482C300.625 482 300.625 482 300.625 482C300.625 482 300.625 482 300.625 482C300.625 482 300.625 482 300.625 482C300.625 482 300.625 482 300.625 482C300.625 482 300.625 482 300.625 482C300.625 482 300.625 482 300.625 482C300.625 482 300.625 482 300.625 482C300.625 482 300.625 482 300.625 482C300.625 482 300.625 482 300.625 482C300.625 482 300.625 482 300.625 482C300.625 482 300.625 482 300.625 482C300.625 482 300.625 482 300.625 482C300.625 482 300.625 482 300.625 482C300.625 482 300.625 482 300.625 482C300.625 482 300.625 482 300.625 482C300.625 482 300.625 482 300.625 482C300.625 482 300.625 482 300.625 482C300.625 482 300.625 482 300.625 482C300.625 482 300.625 482 300.625 482C300.626 482 300.626 482 300.626 482C300.626 482 300.626 482 300.626 482C300.626 482 300.626 482 300.626 482C300.626 482 300.626 482 300.626 482C300.626 482 300.626 482 300.626 482C300.626 482 300.626 482 300.626 482C300.626 482 300.626 482 300.626 482C300.626 482 300.626 482 300.626 482C300.626 482 300.626 482 300.626 482C300.626 482 300.626 482 300.626 482C300.626 482 300.626 482 300.626 482C300.626 482 300.626 482 300.626 482C300.626 482 300.626 482 300.626 482C300.626 482 300.626 482 300.626 482C300.626 482 300.626 482 300.626 482C300.626 482 300.626 482 300.626 482C300.626 482 300.626 482 300.626 482C300.626 482 300.626 482 300.626 482C300.626 482 300.627 482 300.627 482C300.627 482 300.627 482 300.627 482C300.627 482 300.627 482 300.627 482C300.627 482 300.627 482 300.627 482C300.627 482 300.627 482 300.627 482C300.627 482 300.627 482 300.627 482C300.627 482 300.627 482 300.627 482C300.627 482 300.627 482 300.627 482C300.627 482 300.627 482 300.627 482C300.627 482 300.627 482 300.627 482C300.627 482 300.627 482 300.627 482C300.627 482 300.627 482 300.627 482C300.627 482 300.627 482 300.627 482C300.628 482 300.628 482 300.628 482C300.628 482 300.628 482 300.628 482C300.628 482 300.628 482 300.628 482C300.628 482 300.628 482 300.628 482C300.628 482 300.628 482 300.628 482C300.628 482 300.628 482 300.628 482C300.628 482 300.628 482 300.628 482C300.628 482 300.628 482 300.628 482C300.628 482 300.628 482 300.628 482C300.628 482 300.628 482 300.628 482C300.629 482 300.629 482 300.629 482C300.629 482 300.629 482 300.629 482C300.629 482 300.629 482 300.629 482V480ZM300.653 482H358.493V480H300.653V482ZM358.493 482H459.187V480H358.493V482ZM459.587 481.917L464.288 479.868L463.49 478.034L458.788 480.083L459.587 481.917ZM464.288 479.868C473.01 476.067 479.276 468.497 481.115 459.481L479.156 459.081C477.452 467.43 471.641 474.482 463.49 478.034L464.288 479.868ZM481.115 459.481C481.171 459.207 481.207 458.611 481.239 457.847C481.274 457.036 481.306 455.925 481.338 454.537C481.401 451.761 481.46 447.857 481.514 442.989C481.622 433.253 481.712 419.65 481.784 403.469C481.928 371.106 482 328.428 482 285.75C482 243.073 481.928 200.394 481.784 168.032C481.712 151.851 481.622 138.247 481.514 128.511C481.46 123.643 481.401 119.74 481.338 116.963C481.306 115.575 481.274 114.464 481.239 113.654C481.207 112.89 481.171 112.293 481.115 112.019L479.156 112.419C479.155 112.415 479.16 112.442 479.168 112.516C479.175 112.585 479.183 112.677 479.191 112.794C479.208 113.027 479.225 113.341 479.241 113.738C479.275 114.529 479.307 115.625 479.338 117.008C479.401 119.773 479.46 123.668 479.514 128.533C479.622 138.262 479.712 151.861 479.784 168.041C479.928 200.399 480 243.074 480 285.75C480 328.426 479.928 371.101 479.784 403.46C479.712 419.639 479.622 433.238 479.514 442.967C479.46 447.832 479.401 451.727 479.338 454.492C479.307 455.875 479.275 456.971 479.241 457.762C479.225 458.159 479.208 458.473 479.191 458.707C479.183 458.823 479.175 458.915 479.168 458.984C479.16 459.059 479.155 459.085 479.156 459.081L481.115 459.481ZM481.115 112.019C479.276 103.003 473.01 95.4329 464.288 91.6322L463.49 93.4657C471.641 97.018 477.452 104.07 479.156 112.419L481.115 112.019ZM464.288 91.6322L459.587 89.5834L458.788 91.4169L463.49 93.4657L464.288 91.6322ZM459.188 89.5002L360.138 89.3787L360.136 91.3787L459.186 91.5002L459.188 89.5002ZM360.138 89.3787C332.077 89.3439 317.813 89.2461 310.344 89.2055C306.615 89.1853 304.565 89.1791 303.338 89.2027C302.099 89.2266 301.636 89.2814 301.104 89.3993L301.536 91.352C301.881 91.2758 302.192 91.2252 303.377 91.2024C304.573 91.1793 306.593 91.1852 310.333 91.2055C317.802 91.2461 332.07 91.3439 360.136 91.3787L360.138 89.3787ZM390.506 111.25C390.76 111.691 390.841 112.011 390.841 112.28C390.841 112.548 390.76 112.868 390.506 113.309L392.239 114.307C392.611 113.662 392.841 112.997 392.841 112.28C392.841 111.562 392.611 110.897 392.239 110.252L390.506 111.25ZM390.506 113.309C390.415 113.467 390.375 113.512 390.339 113.543C390.304 113.573 390.213 113.641 389.96 113.719C389.409 113.89 388.367 114.033 386.25 114.131C382.061 114.326 374.088 114.336 358.493 114.336V116.336C374.056 116.336 382.095 116.326 386.343 116.129C388.443 116.031 389.725 115.885 390.551 115.63C390.987 115.495 391.347 115.315 391.645 115.058C391.941 114.803 392.116 114.521 392.239 114.307L390.506 113.309ZM358.493 114.336C342.898 114.336 334.924 114.326 330.736 114.131C328.619 114.033 327.577 113.89 327.026 113.719C326.773 113.641 326.682 113.573 326.647 113.543C326.61 113.512 326.571 113.467 326.48 113.309L324.747 114.307C324.87 114.521 325.044 114.803 325.341 115.058C325.639 115.315 325.999 115.495 326.435 115.63C327.26 115.885 328.543 116.031 330.643 116.129C334.891 116.326 342.93 116.336 358.493 116.336V114.336ZM326.48 113.309C326.226 112.868 326.145 112.548 326.145 112.28C326.145 112.011 326.226 111.691 326.48 111.25L324.746 110.252C324.375 110.897 324.145 111.562 324.145 112.28C324.145 112.997 324.375 113.662 324.746 114.307L326.48 113.309ZM326.48 111.25C326.571 111.092 326.61 111.047 326.647 111.016C326.682 110.986 326.773 110.918 327.026 110.84C327.577 110.669 328.619 110.526 330.736 110.428C334.924 110.233 342.898 110.223 358.493 110.223V108.223C342.93 108.223 334.891 108.233 330.643 108.43C328.543 108.528 327.26 108.674 326.435 108.929C325.999 109.064 325.639 109.244 325.341 109.501C325.044 109.756 324.87 110.038 324.747 110.252L326.48 111.25ZM358.493 110.223C374.088 110.223 382.061 110.233 386.25 110.428C388.367 110.526 389.409 110.669 389.96 110.84C390.213 110.918 390.304 110.986 390.339 111.016C390.375 111.047 390.415 111.092 390.506 111.25L392.239 110.252C392.116 110.038 391.941 109.756 391.645 109.501C391.347 109.244 390.987 109.064 390.551 108.929C389.725 108.674 388.443 108.528 386.343 108.43C382.095 108.233 374.056 108.223 358.493 108.223V110.223ZM460.242 282.311V432.474H462.242V282.311H460.242ZM461.242 431.474H358.493V433.474H461.242V431.474ZM358.492 431.474L300.723 431.553L300.725 433.553L358.494 433.474L358.492 431.474ZM301.297 133.148H358.493V131.148H301.297V133.148ZM358.493 133.148H461.242V131.148H358.493V133.148ZM460.242 132.148V282.311H462.242V132.148H460.242ZM362.835 443.401C364.093 443.843 365.632 444.813 367.065 446.042C368.495 447.268 369.732 448.677 370.435 449.929L372.179 448.949C371.325 447.431 369.91 445.847 368.367 444.524C366.827 443.203 365.074 442.068 363.497 441.514L362.835 443.401ZM370.435 449.929C371.586 451.977 371.813 454.644 371.182 457.266C370.551 459.882 369.086 462.352 366.994 463.989L368.226 465.564C370.718 463.614 372.403 460.732 373.126 457.734C373.847 454.742 373.631 451.534 372.179 448.949L370.435 449.929ZM366.994 463.989C358.188 470.877 345.519 465.117 345.519 454.622H343.519C343.519 467.02 358.297 473.331 368.226 465.564L366.994 463.989ZM345.519 454.622C345.519 450.681 347.788 447.168 351.143 444.979C354.497 442.791 358.837 441.997 362.835 443.401L363.497 441.514C358.84 439.878 353.856 440.822 350.05 443.304C346.246 445.786 343.519 449.876 343.519 454.622H345.519ZM301.724 432.555L302.297 132.15L300.297 132.146L299.724 432.551L301.724 432.555Z" fill="black" fill-opacity="0.2" mask="url(#path-3-inside-1_1182_5)"/>
</svg>
